<svg id="Layer_1" xmlns="http://www.w3.org/2000/svg" viewBox="0 0 100 50"><style>.st0{fill:#f57f20}</style><g id="XMLID_2_"><path id="XMLID_3_" class="st0" d="M19.9 17.2c-.6.3-1.1-.1-1.5-.5-.7-.5-1.4-1-2.2-1.2-1.5-.5-3.2-.6-4.8-.2-3.2.7-5.8 3.4-6.7 6.6-2 6.6 3.5 14.4 10.8 12.5.7-.2 1.4-.5 2.1-.9.6-.4 1.5-1.4 2.3-1.2.7.2 1 1.1.6 1.7-.3.6-1.2 1.1-1.8 1.5-2.7 1.6-6.3 1.8-9.2.7C2.8 33.7.2 25.2 3.4 19c1.7-3.3 4.9-5.7 8.6-6.1 1.9-.2 4 .1 5.7.9.9.4 1.9 1 2.5 1.7.5.4.5 1.6-.3 1.7"/><path id="XMLID_5_" class="st0" d="M26.6 30.4c0 1.4-.1 3 1.4 3.8.4.2 1-.1 1.5.1.7.4.7 1.5.1 1.9-1.3.9-3.3-.2-4.1-1.2-.7-1 .7 1 0 0-1.1-1.4-1.1-3.1-1.1-4.7V14.7c0-.5 0-1 .4-1.4.9-.7 1.7.4 1.8 1.3v15.8z"/><path id="XMLID_7_" class="st0" d="M35.7 35.6c-6.2-3.7-4.7-14.2 2.6-15.5 3.3-.6 6.7.8 8.4 3.8 1.7 3 1.5 7.1-.7 9.8-2.4 3.1-7 3.8-10.3 1.9-1.2-.7 1.2.7 0 0zm7.1-1.8c2.8-1.7 3.6-5.8 2.1-8.6-1.5-2.9-5.3-3.9-8-2.2-2.9 1.7-3.6 5.8-2.1 8.6s5.2 3.9 8 2.2c.9-.6-.9.5 0 0z"/><path id="XMLID_10_" class="st0" d="M54.2 36c-.9-.4-3.2-1.4-2.9-2.7.1-.5.7-1 1.3-.9.6.1 1 .8 1.5 1.1 1.8 1.3 6.2 1.8 7.4-.7 1.5-3.1-3.5-3.6-5.3-4.1-2.6-.7-5-2.7-4.1-5.7.9-2.8 4.4-3.4 7-3 1.4.2 2.7.8 3.6 1.9.4.4.8.9.7 1.5-.2.7-1 .9-1.5.6-.6-.3-1-.9-1.5-1.3-.6-.4-1.2-.6-1.9-.7-1.3-.2-3-.1-3.9 1-.9 1-.5 2.5.7 3.2 1.2.7 2.8.8 4.1 1.1 1.3.3 2.7.8 3.6 1.9 1 1.2 1.2 2.9.5 4.3-1.6 3.5-6.4 3.7-9.3 2.5-1.1-.4 1.1.5 0 0z"/><path id="XMLID_12_" class="st0" d="M68.9 29.1c.3 3.4 3.1 5.9 6.6 5.5.9-.1 1.7-.4 2.5-.8.7-.4 1.6-1.3 2.2-.2.9 1.4-2.2 2.5-3.1 2.8-3.3 1-7-.2-8.9-3.1-1.8-2.8-1.8-6.9-.1-9.7 2-3.3 6.7-4.5 10-2.4 1.1.7-1.1-.7 0 0 1.3.8 2.2 2 2.8 3.4.3.6.7 2 .7 3.2 0 .7-.7 1.3-1.4 1.3H68.9zm1.8-5.6c-1 1-1.6 2.3-1.8 3.7h10.5c-.2-2-1.2-3.9-3.1-4.7-1.8-.9-4.1-.5-5.6 1z"/><path id="XMLID_15_" class="st0" d="M88.3 20.7c.9 0 2.3-.1 3.1 0 1.4.1 1.5 1.9.1 2-.9.1-3.2 0-3.2 0v6.7c0 2.2.4 4.6 3.1 4.7.5 0 1.1-.1 1.5.3.6.6.2 1.7-.6 1.9-1.3.4-3.1-.2-4.1-1-2.3-1.8-2.2-4.5-2.2-7.1V15.7M86.1 15.9c.1-.9 2.2-.9 2.2 0v4.9m-2.2-4.9"/></g><circle id="XMLID_13_" class="st0" cx="96" cy="35.3" r="1.3"/></svg>